# xmcd
#
# Track frame offsets:
#	150
#	32050
#	52791
#	70927
#	90616
#	114903
#	138465
#	156433
#	178846
#
# Disc length: 2671 seconds
#
# Revision: 17
# Processed by: cddbd v1.5.2PL0 Copyright (c) Steve Scherf et al.
# Submitted via: Jack! The Knife 20 Magnifico
#
DISCID=740a6d09
DTITLE=Deep Purple - Perfect Strangers
DYEAR=1984
DGENRE=Hard Rock
TTITLE0=Knocking At Your Back Door
TTITLE1=Under The Gun
TTITLE2=Nobody's Home
TTITLE3=Mean Streak
TTITLE4=Perfect Strangers
TTITLE5=A Gypsy's Kiss
TTITLE6=Wasted Sunsets
TTITLE7=Hungry Daze
TTITLE8=Not Responsible
EXTD=Roger Glover and Deep Purple
EXTT0=Blackmore, Gillan, Glover
EXTT1=Blackmore, Gillan, Glover
EXTT2=Blackmore, Gillan, Glover, Lord, Paice
EXTT3=Blackmore, Gillan, Glover
EXTT4=Blackmore, Gillan, Glover
EXTT5=Blackmore, Gillan, Glover
EXTT6=Blackmore, Gillan, Glover
EXTT7=Blackmore, Gillan, Glover
EXTT8=Blackmore, Gillan, Glover
PLAYORDER=
